name analog
datacolumns 19
datarows 63
range 0.4525 0.4835
endheader
time	ground_force_vx	ground_force_vy	ground_force_vz	ground_force_px	ground_force_py	ground_force_pz	l_ground_force_vx	l_ground_force_vy	l_ground_force_vz	l_ground_force_px	l_ground_force_py	l_ground_force_pz	ground_torque_x	ground_torque_y	ground_torque_z	l_ground_torque_x	l_ground_torque_y	l_ground_torque_z
0.4525	-0.0	-0.0	-0.0	-0.0	-0.0	-0.0	-7.826859474182129	-1.1481819152832031	-473.529541015625	-0.0	-0.0	-0.0	-0.0	-0.0	-0.0	143505.03125	38430.19140625	-2518.245849609375
0.453	-0.0	-0.0	-0.0	-0.0	-0.0	-0.0	-8.420880317687988	0.3322771787643432	-470.9793701171875	-0.0	-0.0	-0.0	-0.0	-0.0	-0.0	142944.15625	38463.578125	-2602.618896484375
0.4535	-0.0	-0.0	-0.0	-0.0	-0.0	-0.0	-8.84943675994873	1.3054413795471191	-468.0249633789063	-0.0	-0.0	-0.0	-0.0	-0.0	-0.0	142075.1875	38426.1640625	-2837.79296875
0.454	-0.0	-0.0	-0.0	-0.0	-0.0	-0.0	-9.539590835571287	1.5961251258850098	-464.745849609375	-0.0	-0.0	-0.0	-0.0	-0.0	-0.0	141488.328125	38347.734375	-2970.655517578125
0.4545	-0.0	-0.0	-0.0	-0.0	-0.0	-0.0	-9.467219352722168	1.5549017190933228	-464.6073303222656	-0.0	-0.0	-0.0	-0.0	-0.0	-0.0	141270.953125	38256.06640625	-2968.58984375
0.455	-0.0	-0.0	-0.0	-0.0	-0.0	-0.0	-9.485992431640623	1.949112057685852	-461.9991455078125	-0.0	-0.0	-0.0	-0.0	-0.0	-0.0	140973.875	38370.5625	-2970.628173828125
0.4555	-0.0	-0.0	-0.0	-0.0	-0.0	-0.0	-8.995244026184082	2.484822988510132	-461.136474609375	-0.0	-0.0	-0.0	-0.0	-0.0	-0.0	140441.78125	38017.29296875	-2839.67431640625
0.456	-0.0	-0.0	-0.0	-0.0	-0.0	-0.0	-8.533575057983398	3.2323732376098637	-458.181884765625	-0.0	-0.0	-0.0	-0.0	-0.0	-0.0	140266.390625	38003.40625	-2720.47412109375
0.4565	-0.0	-0.0	-0.0	-0.0	-0.0	-0.0	-8.50496768951416	3.6625454425811768	-457.9012756347656	-0.0	-0.0	-0.0	-0.0	-0.0	-0.0	139753.59375	37841.625	-2797.30615234375
0.457	-0.0	-0.0	-0.0	-0.0	-0.0	-0.0	-8.990376472473145	3.5438337326049805	-456.276123046875	-0.0	-0.0	-0.0	-0.0	-0.0	-0.0	139191.640625	37861.58203125	-2868.994384765625
0.4575	-0.0	-0.0	-0.0	-0.0	-0.0	-0.0	-9.220568656921388	3.3977200984954834	-455.6428833007813	-0.0	-0.0	-0.0	-0.0	-0.0	-0.0	138869.234375	37999.546875	-2938.8544921875
0.458	-0.0	-0.0	-0.0	-0.0	-0.0	-0.0	-9.539022445678713	3.169175624847412	-453.5068359375	-0.0	-0.0	-0.0	-0.0	-0.0	-0.0	138158.109375	37806.87890625	-3019.500244140625
0.4585	-0.0	-0.0	-0.0	-0.0	-0.0	-0.0	-9.706223487854004	2.4212725162506104	-449.7471923828125	-0.0	-0.0	-0.0	-0.0	-0.0	-0.0	137595.015625	37615.50390625	-3126.099853515625
0.459	-0.0	-0.0	-0.0	-0.0	-0.0	-0.0	-9.93560791015625	1.91117525100708	-449.02838134765625	-0.0	-0.0	-0.0	-0.0	-0.0	-0.0	136542.75	37588.28125	-3322.365478515625
0.4595	-0.0	-0.0	-0.0	-0.0	-0.0	-0.0	-10.113029479980469	1.2269492149353027	-445.0220642089844	-0.0	-0.0	-0.0	-0.0	-0.0	-0.0	135743.5	37136.234375	-3449.513916015625
0.46	-0.0	-0.0	-0.0	-0.0	-0.0	-0.0	-9.893574714660645	0.98540997505188	-441.8422546386719	-0.0	-0.0	-0.0	-0.0	-0.0	-0.0	134406.59375	36718.78125	-3311.996826171875
0.4605	-0.0	-0.0	-0.0	-0.0	-0.0	-0.0	-9.571728706359863	0.5344282388687134	-437.5047607421875	-0.0	-0.0	-0.0	-0.0	-0.0	-0.0	133271.484375	36083.4375	-3324.51171875
0.461	-0.0	-0.0	-0.0	-0.0	-0.0	-0.0	-9.026643753051758	0.3909194469451904	-433.8467102050781	-0.0	-0.0	-0.0	-0.0	-0.0	-0.0	132349.375	35500.4609375	-2986.825439453125
0.4615	-0.0	-0.0	-0.0	-0.0	-0.0	-0.0	-8.12336254119873	-0.0967191308736801	-430.1382141113281	-0.0	-0.0	-0.0	-0.0	-0.0	-0.0	131481.046875	34793.328125	-2883.2138671875
0.462	-0.0	-0.0	-0.0	-0.0	-0.0	-0.0	-7.139173030853272	-0.2771824896335602	-427.178955078125	-0.0	-0.0	-0.0	-0.0	-0.0	-0.0	130803.5546875	34331.578125	-2765.271240234375
0.4625	-0.0	-0.0	-0.0	-0.0	-0.0	-0.0	-6.248205661773682	-0.7526938915252686	-425.6158447265625	-0.0	-0.0	-0.0	-0.0	-0.0	-0.0	130228.671875	33732.60546875	-2407.422119140625
0.463	-0.0	-0.0	-0.0	-0.0	-0.0	-0.0	-5.546319007873535	-0.4838823974132538	-423.1568603515625	-0.0	-0.0	-0.0	-0.0	-0.0	-0.0	129488.84375	33140.9375	-2050.88623046875
0.4635	-0.0	-0.0	-0.0	-0.0	-0.0	-0.0	-4.701671600341797	0.0883216857910156	-421.4115905761719	-0.0	-0.0	-0.0	-0.0	-0.0	-0.0	129237.2109375	32744.65234375	-1846.1669921875
0.464	-0.0	-0.0	-0.0	-0.0	-0.0	-0.0	-4.25811767578125	0.5229421854019165	-421.1044616699219	-0.0	-0.0	-0.0	-0.0	-0.0	-0.0	129231.15625	32503.822265625	-1620.17236328125
0.4645	-0.0	-0.0	-0.0	-0.0	-0.0	-0.0	-3.2789177894592285	1.8972331285476685	-419.525634765625	-0.0	-0.0	-0.0	-0.0	-0.0	-0.0	129362.3203125	31891.99609375	-1381.793212890625
0.465	-0.0	-0.0	-0.0	-0.0	-0.0	-0.0	-2.306480407714844	3.395554304122925	-418.9946899414063	-0.0	-0.0	-0.0	-0.0	-0.0	-0.0	129344.8203125	31658.966796875	-1171.9666748046875
0.4655	-0.0	-0.0	-0.0	-0.0	-0.0	-0.0	-1.0155532360076904	4.206014633178711	-419.1383361816406	-0.0	-0.0	-0.0	-0.0	-0.0	-0.0	129550.140625	31112.255859375	-887.5149536132812
0.466	-0.0	-0.0	-0.0	-0.0	-0.0	-0.0	-0.2202997505664825	4.997529029846191	-420.5356750488281	-0.0	-0.0	-0.0	-0.0	-0.0	-0.0	130110.640625	30781.453125	-634.1943359375
0.4665	-0.0	-0.0	-0.0	-0.0	-0.0	-0.0	0.8011974096298218	5.874786376953125	-422.8226318359375	-0.0	-0.0	-0.0	-0.0	-0.0	-0.0	130851.7265625	30521.275390625	-386.3797912597656
0.467	-0.0	-0.0	-0.0	-0.0	-0.0	-0.0	1.6371692419052124	6.806053638458252	-424.3885803222656	-0.0	-0.0	-0.0	-0.0	-0.0	-0.0	131755.8125	30241.66796875	-236.19384765625
0.4675	-0.0	-0.0	-0.0	-0.0	-0.0	-0.0	1.9566891193389893	7.550246715545654	-426.5135498046875	-0.0	-0.0	-0.0	-0.0	-0.0	-0.0	132614.265625	30205.142578125	-68.73909759521484
0.468	-0.0	-0.0	-0.0	-0.0	-0.0	-0.0	2.7955756187438965	8.30932331085205	-428.95611572265625	-0.0	-0.0	-0.0	-0.0	-0.0	-0.0	133432.203125	29785.166015625	19.327373504638672
0.4685	-0.0	-0.0	-0.0	-0.0	-0.0	-0.0	3.193588256835937	8.608040809631348	-430.50396728515625	-0.0	-0.0	-0.0	-0.0	-0.0	-0.0	134274.9375	29488.3984375	109.39806365966795
0.46900000000000003	-0.0	-0.0	-0.0	-0.0	-0.0	-0.0	3.5505294799804688	9.232748985290527	-430.6744079589844	-0.0	-0.0	-0.0	-0.0	-0.0	-0.0	134969.78125	29275.490234375	183.55604553222656
0.46950000000000003	-0.0	-0.0	-0.0	-0.0	-0.0	-0.0	3.8560032844543457	9.672192573547363	-432.2573852539063	-0.0	-0.0	-0.0	-0.0	-0.0	-0.0	135203.15625	29089.818359375	140.3124237060547
0.47000000000000003	-0.0	-0.0	-0.0	-0.0	-0.0	-0.0	4.171224117279053	9.758642196655272	-432.4207153320313	-0.0	-0.0	-0.0	-0.0	-0.0	-0.0	135500.546875	28811.62109375	300.8704833984375
0.47050000000000003	-0.0	-0.0	-0.0	-0.0	-0.0	-0.0	4.348491191864014	10.028650283813477	-432.0653076171875	-0.0	-0.0	-0.0	-0.0	-0.0	-0.0	135745.625	28592.26953125	317.94647216796875
0.47100000000000003	-0.0	-0.0	-0.0	-0.0	-0.0	-0.0	4.658074378967285	9.49986457824707	-433.9894714355469	-0.0	-0.0	-0.0	-0.0	-0.0	-0.0	136045.03125	28553.7421875	553.75
0.47150000000000003	-0.0	-0.0	-0.0	-0.0	-0.0	-0.0	5.056514739990234	10.109375	-433.1362609863281	-0.0	-0.0	-0.0	-0.0	-0.0	-0.0	135908.90625	28399.091796875	451.1245727539063
0.47200000000000003	-0.0	-0.0	-0.0	-0.0	-0.0	-0.0	5.590014934539795	10.069902420043944	-434.7035217285156	-0.0	-0.0	-0.0	-0.0	-0.0	-0.0	136209.796875	28021.8359375	583.9494018554688
0.47250000000000003	-0.0	-0.0	-0.0	-0.0	-0.0	-0.0	5.455168724060059	10.15916347503662	-435.5730895996094	-0.0	-0.0	-0.0	-0.0	-0.0	-0.0	136668.40625	27927.748046875	733.0469360351562
0.47300000000000003	-0.0	-0.0	-0.0	-0.0	-0.0	-0.0	6.2116804122924805	9.937627792358398	-435.9139099121094	-0.0	-0.0	-0.0	-0.0	-0.0	-0.0	137241.609375	27765.115234375	866.2332763671875
0.47350000000000003	-0.0	-0.0	-0.0	-0.0	-0.0	-0.0	7.231142044067383	9.671627044677734	-437.3108215332031	-0.0	-0.0	-0.0	-0.0	-0.0	-0.0	137222.71875	27153.279296875	838.1924438476562
0.47400000000000003	-0.0	-0.0	-0.0	-0.0	-0.0	-0.0	7.673823833465576	9.626384735107422	-437.1431884765625	-0.0	-0.0	-0.0	-0.0	-0.0	-0.0	137688.421875	27003.73046875	1001.7620239257812
0.47450000000000003	-0.0	-0.0	-0.0	-0.0	-0.0	-0.0	8.56032657623291	9.405997276306152	-438.7100524902344	-0.0	-0.0	-0.0	-0.0	-0.0	-0.0	138264.65625	26908.236328125	1313.8714599609375
0.47500000000000003	-0.0	-0.0	-0.0	-0.0	-0.0	-0.0	8.826913833618164	8.876139640808105	-442.02447509765625	-0.0	-0.0	-0.0	-0.0	-0.0	-0.0	139052.890625	26952.6328125	1432.2786865234375
0.47550000000000003	-0.0	-0.0	-0.0	-0.0	-0.0	-0.0	8.96030044555664	8.698795318603516	-445.17132568359375	-0.0	-0.0	-0.0	-0.0	-0.0	-0.0	140056.796875	27018.73046875	1180.3543701171875
0.47600000000000003	-0.0	-0.0	-0.0	-0.0	-0.0	-0.0	7.629127502441406	8.655323028564453	-447.6119995117188	-0.0	-0.0	-0.0	-0.0	-0.0	-0.0	141149.40625	27294.84375	897.5454711914062
0.47650000000000003	-0.0	-0.0	-0.0	-0.0	-0.0	-0.0	6.431593418121338	8.434733390808105	-451.1036987304688	-0.0	-0.0	-0.0	-0.0	-0.0	-0.0	142319.40625	27491.212890625	436.8657531738281
0.47700000000000004	-0.0	-0.0	-0.0	-0.0	-0.0	-0.0	5.012245178222656	8.213746070861816	-455.6428833007813	-0.0	-0.0	-0.0	-0.0	-0.0	-0.0	143291.671875	27878.873046875	124.30715942382812
0.47750000000000004	-0.0	-0.0	-0.0	-0.0	-0.0	-0.0	4.303286075592041	8.346561431884766	-457.7352294921875	-0.0	-0.0	-0.0	-0.0	-0.0	-0.0	144441.328125	28306.08203125	-98.91551971435548
0.47800000000000004	-0.0	-0.0	-0.0	-0.0	-0.0	-0.0	3.637594223022461	7.90501594543457	-462.2767333984375	-0.0	-0.0	-0.0	-0.0	-0.0	-0.0	145426.96875	28735.546875	-351.5247497558594
0.47850000000000004	-0.0	-0.0	-0.0	-0.0	-0.0	-0.0	3.282299041748047	7.509153842926025	-464.8989562988281	-0.0	-0.0	-0.0	-0.0	-0.0	-0.0	146771.71875	29240.462890625	-455.6522521972656
0.47900000000000004	-0.0	-0.0	-0.0	-0.0	-0.0	-0.0	3.149608850479126	6.624126434326172	-469.7820434570313	-0.0	-0.0	-0.0	-0.0	-0.0	-0.0	147616.03125	29612.28515625	-485.6598815917969
0.47950000000000004	-0.0	-0.0	-0.0	-0.0	-0.0	-0.0	2.706118106842041	5.918427467346191	-472.398681640625	-0.0	-0.0	-0.0	-0.0	-0.0	-0.0	148810.71875	29878.712890625	-634.7896728515625
0.48	-0.0	-0.0	-0.0	-0.0	-0.0	-0.0	2.0841870307922363	5.870821952819824	-475.72113037109375	-0.0	-0.0	-0.0	-0.0	-0.0	-0.0	150168.546875	30368.6171875	-871.5977783203125
0.4805	-0.0	-0.0	-0.0	-0.0	-0.0	-0.0	1.2868961095809937	5.788005828857422	-479.72503662109375	-0.0	-0.0	-0.0	-0.0	-0.0	-0.0	151135.265625	30616.310546875	-1035.0672607421875
0.481	-0.0	-0.0	-0.0	-0.0	-0.0	-0.0	1.5478650331497192	5.478546619415283	-481.8292236328125	-0.0	-0.0	-0.0	-0.0	-0.0	-0.0	151946.1875	30776.1953125	-1020.6985473632812
0.4815	-0.0	-0.0	-0.0	-0.0	-0.0	-0.0	1.41937255859375	5.122657775878906	-483.225830078125	-0.0	-0.0	-0.0	-0.0	-0.0	-0.0	152162.84375	30888.51171875	-1141.464599609375
0.482	-0.0	-0.0	-0.0	-0.0	-0.0	-0.0	1.9049001932144165	4.947595119476318	-486.1842651367188	-0.0	-0.0	-0.0	-0.0	-0.0	-0.0	152934.328125	31202.9296875	-947.1687622070312
0.4825	-0.0	-0.0	-0.0	-0.0	-0.0	-0.0	2.302996635437012	4.111293792724609	-487.4156494140625	-0.0	-0.0	-0.0	-0.0	-0.0	-0.0	153381.375	31082.4296875	-887.8214721679688
0.483	-0.0	-0.0	-0.0	-0.0	-0.0	-0.0	2.706622838973999	3.711390256881714	-488.8271179199219	-0.0	-0.0	-0.0	-0.0	-0.0	-0.0	153994.703125	31017.23046875	-709.0693359375
0.4835	-0.0	-0.0	-0.0	-0.0	-0.0	-0.0	3.0141518115997314	2.520177125930786	-489.5026550292969	-0.0	-0.0	-0.0	-0.0	-0.0	-0.0	154093.265625	30743.50390625	-620.1610717773438
